<svg width="200" height="200" viewBox="0 0 200 200" fill="none" xmlns="http://www.w3.org/2000/svg">
<rect width="200" height="200" fill="#F5F5F5"/>
<path d="M100 50C116.569 50 130 63.431 130 80C130 96.569 116.569 110 100 110C83.431 110 70 96.569 70 80C70 63.431 83.431 50 100 50Z" fill="#CCCCCC"/>
<path d="M100 130C116.569 130 130 143.431 130 160C130 176.569 116.569 190 100 190C83.431 190 70 176.569 70 160C70 143.431 83.431 130 100 130Z" fill="#CCCCCC"/>
<rect x="85" y="85" width="30" height="30" rx="5" fill="#CCCCCC"/>
</svg>
